<?xml version="1.0" encoding="UTF-8"?>
<svg width="88px" height="88px" viewBox="0 0 88 88" version="1.1" xmlns="http://www.w3.org/2000/svg" xmlns:xlink="http://www.w3.org/1999/xlink">
    <!-- Generator: Sketch 50.2 (55047) - http://www.bohemiancoding.com/sketch -->
    <title>numbers</title>
    <desc>Created with Sketch.</desc>
    <defs></defs>
    <g id="numbers" stroke="none" stroke-width="1" fill="none" fill-rule="evenodd">
        <g id="Group" transform="translate(21.000000, 21.000000)" fill="#FFFFFF" fill-rule="nonzero">
            <path d="M0,6.85416667 L0,21.5416667 L21.5416667,21.5416667 L21.5416667,-9.34395789e-07 L6.85416667,-1.05879118e-22 C3.07458333,-0.00195833333 0,3.07458333 0,6.85416667 Z M9.79166667,5.83333333 C9.79166667,5.29283333 10.2303333,4.85416667 10.7708333,4.85416667 C11.3113333,4.85416667 11.75,5.29283333 11.75,5.83333333 L11.75,9.75 L15.6666667,9.75 C16.2071667,9.75 16.6458333,10.1886667 16.6458333,10.7291667 C16.6458333,11.2696667 16.2071667,11.706375 15.6666667,11.7083333 L11.75,11.7083333 L11.75,15.625 C11.75,16.1635417 11.3113333,16.6041667 10.7708333,16.6041667 C10.2303333,16.6041667 9.79166667,16.1635417 9.79166667,15.625 L9.79166667,11.7083333 L5.875,11.7083333 C5.3345,11.706375 4.89583333,11.2696667 4.89583333,10.7272083 C4.89583333,10.1867083 5.3345,9.74804167 5.875,9.74804167 L9.79166667,9.74804167 L9.79166667,5.83333333 Z" id="Shape"></path>
            <path d="M23.5,47 L40.1458333,47 C43.9254167,47 47,43.9254167 47,40.1458333 L47,23.5 L23.5,23.5 L23.5,47 Z M30.375,32.3333333 L40.1666667,32.3333333 C40.7071667,32.3333333 41.1458333,32.772 41.1458333,33.3125 C41.1458333,33.8510417 40.7071667,34.2916667 40.1666667,34.2916667 L30.375,34.2916667 C29.8345,34.2916667 29.3958333,33.8510417 29.3958333,33.3125 C29.3958333,32.772 29.8345,32.3333333 30.375,32.3333333 Z M30.375,36.25 L40.1666667,36.25 C40.7071667,36.25 41.1458333,36.6886667 41.1458333,37.2291667 C41.1458333,37.7677083 40.7071667,38.2083333 40.1666667,38.2083333 L30.375,38.2083333 C29.8345,38.2083333 29.3958333,37.7677083 29.3958333,37.2291667 C29.3958333,36.6886667 29.8345,36.25 30.375,36.25 Z" id="Shape"></path>
            <path d="M40.1458333,8.69674561e-16 L23.5,-9.34395789e-07 L23.5,21.5416667 L47,21.5416667 L47,6.85416667 C47,3.07458333 43.9254167,-0.00195833333 40.1458333,8.69674561e-16 Z M40.1666667,12.7083333 L30.375,12.7083333 C29.8345,12.706375 29.3958333,12.2696667 29.3958333,11.7272083 C29.3958333,11.1867083 29.8345,10.7480417 30.375,10.7480417 L40.1666667,10.7480417 C40.7071667,10.7480417 41.1458333,11.1867083 41.1458333,11.7272083 C41.1458333,12.2696667 40.7071667,12.706375 40.1666667,12.7083333 Z" id="Shape"></path>
            <path d="M0,40.1458333 C0,43.9254167 3.07458333,47 6.85416667,47 L21.5416667,47 L21.5416667,23.5 L0,23.5 L0,40.1458333 Z M7.1125167,31.8761317 C6.76974098,31.533356 6.76974098,30.9761258 7.1125167,30.6315922 C7.45529242,30.2888165 8.01252269,30.2888165 8.35529841,30.6315922 L11.2486771,33.5249709 L14.1438135,30.6315922 C14.4865893,30.2888165 15.0438195,30.2888165 15.3865953,30.6315922 C15.729371,30.9743679 15.729371,31.533356 15.3865953,31.8761317 L12.4914588,34.7695104 L15.3865953,37.662889 C15.729371,38.0056648 15.729371,38.5646529 15.3865953,38.9074286 C15.0438195,39.2502043 14.4865893,39.2502043 14.1438135,38.9074286 L11.2486771,36.0105343 L8.35354059,38.9056708 C8.01076487,39.2484465 7.45353459,39.2484465 7.11075887,38.9056708 C6.76798315,38.562895 6.76798315,38.0056648 7.11075887,37.6611312 L10.0058953,34.7695104 L7.1125167,31.8761317 Z" id="Shape"></path>
        </g>
        <g id="Functionicon" transform="translate(43.000000, 67.000000)" stroke="#000000" stroke-width="15">
            <path d="M135.021484,0 L120.715869,1.3e-06 C102.62064,3.2e-06 86.665184,11.8626048 81.453323,29.1910153 C72.578872,58.6968125 65.2057477,87.1139963 59.333949,114.442566 C53.4163186,141.984447 46.0734562,170.267439 37.3053618,199.29154 L37.3053595,199.29154 C32.3365207,215.739365 17.1819764,226.992192 0,226.992192" id="Path"></path>
        </g>
    </g>
</svg>